<?xml version="1.0" encoding="UTF-8"?>
<svg id="Layer_1" xmlns="http://www.w3.org/2000/svg" xmlns:xlink="http://www.w3.org/1999/xlink" version="1.1" viewBox="140 700 1730 600">
  <!-- Generator: Adobe Illustrator 30.2.1, SVG Export Plug-In . SVG Version: 2.1.1 Build 1)  -->
  <defs>
    <style>
      .st0 {
        fill: url(#linear-gradient2);
      }

      .st1 {
        fill: url(#linear-gradient1);
      }

      .st2 {
        fill: url(#linear-gradient3);
      }

      .st3 {
        fill: url(#linear-gradient4);
      }

      .st4 {
        fill: url(#linear-gradient);
      }

      .st5 {
        fill: #fff;
      }
    </style>
    <linearGradient id="linear-gradient" x1="170.96" y1="1000.58" x2="746.8" y2="1000.58" gradientUnits="userSpaceOnUse">
      <stop offset="0" stop-color="#00e9ff"/>
      <stop offset=".87" stop-color="#b157fd"/>
    </linearGradient>
    <linearGradient id="linear-gradient1" x1="620.96" y1="760.14" x2="278.53" y2="1102.56" xlink:href="#linear-gradient"/>
    <linearGradient id="linear-gradient2" x1="193.01" y1="1079.77" x2="442.05" y2="1079.77" xlink:href="#linear-gradient"/>
    <linearGradient id="linear-gradient3" x1="355.5" y1="1048.28" x2="222.58" y2="1181.21" xlink:href="#linear-gradient"/>
    <linearGradient id="linear-gradient4" x1="687.57" y1="819.34" x2="333.46" y2="1173.44" xlink:href="#linear-gradient"/>
  </defs>
  <g>
    <path class="st5" d="M909.03,905.17c58.72,0,90.62,32.79,90.62,100.75s-31.6,100.45-90.62,100.45h-70.94c-11.33,0-16.69-5.37-16.69-16.39v-168.42c0-11.03,5.37-16.39,16.69-16.39h70.94ZM856.56,1067.62c0,2.68,1.19,3.58,3.88,3.58h48.59c39.05,0,55.44-19.38,55.44-65.58s-16.39-65.28-55.44-65.28h-48.59c-2.68,0-3.88.89-3.88,3.58v123.7Z"/>
    <path class="st5" d="M1141.83,948.98c37.26,0,53.06,17.89,53.06,48.29s-14.61,45.31-53.36,45.31h-74.82v11.33c0,12.52,6.86,21.76,24.14,21.76h96.28v30.7h-96.28c-39.35,0-54.85-22.06-54.85-51.87v-53.65c0-29.81,15.5-51.87,54.85-51.87h50.97ZM1066.72,1017.84h73.92c16.99,0,23.25-7.15,23.25-18.78s-6.86-19.67-22.36-19.67h-50.67c-17.29,0-24.14,9.54-24.14,21.76v16.69Z"/>
    <path class="st5" d="M1239.3,948.98v-14.01c0-41.13,14.01-54.25,46.5-54.25h28.32v28.91h-21.76c-14.9,0-21.16,5.96-21.16,23.55v15.8h43.52v30.4h-43.52v126.98h-31.89v-126.98h-21.46v-30.4h21.46Z"/>
    <path class="st5" d="M1439.32,948.98c41.73,0,68.26,25.64,68.26,78.69s-26.53,78.69-68.26,78.69h-33.09c-42.03,0-68.26-25.63-68.26-78.69s26.23-78.69,68.26-78.69h33.09ZM1409.21,979.39c-27.42,0-39.35,14.31-39.35,48.29s11.92,47.99,39.35,47.99h27.12c27.13,0,39.35-14.01,39.35-47.99s-12.22-48.29-39.35-48.29h-27.12Z"/>
    <path class="st5" d="M1652.44,948.98v30.4h-55.44c-14.01,0-20.27,6.56-20.27,20.27v106.71h-31.6v-111.48c0-31.6,11.62-45.9,42.62-45.9h64.68Z"/>
    <path class="st5" d="M1784.2,948.98c39.35,0,54.85,22.06,54.85,51.87v73.92c0,22.65-5.96,31.6-32.49,31.6h-73.63c-37.26,0-52.76-18.18-52.76-47.99s14.31-45.31,53.06-45.31h74.82v-11.92c0-12.22-6.86-21.76-24.14-21.76h-94.19v-30.4h94.49ZM1808.04,1067.62v-29.51h-74.22c-16.69,0-22.65,6.86-22.65,18.48s6.26,19.08,22.06,19.08h66.17c6.26,0,8.64-2.38,8.64-8.05Z"/>
  </g>
  <g>
    <path class="st5" d="M1295.07,1224.15h-22.89v-68.62h23.91c7.2,0,13.35,1.37,18.47,4.1,5.12,2.74,9.04,6.66,11.77,11.76,2.73,5.1,4.09,11.21,4.09,18.31s-1.38,13.3-4.13,18.45-6.76,9.1-12.03,11.86c-5.27,2.76-11.66,4.14-19.2,4.14ZM1281.16,1216.77h13.33c6.13,0,11.22-1.09,15.25-3.28,4.03-2.19,7.04-5.3,9.02-9.35,1.98-4.04,2.97-8.86,2.97-14.44s-.98-10.31-2.93-14.32c-1.96-4.01-4.88-7.09-8.77-9.25-3.89-2.16-8.73-3.23-14.53-3.23h-14.34v53.88Z"/>
    <path class="st5" d="M1380.58,1146.95c-1.67,0-3.1-.52-4.29-1.58-1.2-1.05-1.79-2.31-1.79-3.79s.6-2.74,1.79-3.79c1.2-1.05,2.63-1.57,4.29-1.57s3.1.52,4.29,1.57c1.2,1.05,1.79,2.31,1.79,3.79s-.6,2.74-1.79,3.79c-1.2,1.05-2.63,1.58-4.29,1.58ZM1385.07,1155.52v68.62h-8.98v-68.62h8.98Z"/>
    <path class="st5" d="M1484.35,1176.97c-.8-2.26-1.84-4.28-3.13-6.08s-2.83-3.33-4.6-4.61c-1.77-1.27-3.79-2.25-6.03-2.92-2.25-.67-4.71-1-7.39-1-4.4,0-8.39,1.05-11.99,3.15-3.6,2.1-6.46,5.19-8.58,9.28-2.13,4.09-3.19,9.1-3.19,15.04s1.07,10.96,3.22,15.04c2.15,4.09,5.06,7.18,8.73,9.28,3.67,2.1,7.8,3.15,12.39,3.15,4.25,0,8-.84,11.25-2.53,3.25-1.69,5.78-4.08,7.61-7.17,1.82-3.09,2.73-6.74,2.73-10.94l2.75.54h-22.31v-7.37h28.25v7.37c0,5.65-1.3,10.57-3.89,14.74-2.6,4.18-6.17,7.41-10.72,9.7-4.55,2.29-9.77,3.43-15.67,3.43-6.57,0-12.33-1.43-17.3-4.29-4.96-2.86-8.83-6.92-11.59-12.2-2.76-5.27-4.15-11.53-4.15-18.76,0-5.43.79-10.31,2.37-14.66,1.58-4.34,3.82-8.05,6.72-11.11,2.9-3.06,6.33-5.41,10.29-7.04,3.96-1.63,8.32-2.45,13.08-2.45,3.91,0,7.56.54,10.96,1.62,3.39,1.08,6.42,2.61,9.09,4.59,2.67,1.98,4.9,4.33,6.68,7.07,1.79,2.74,3.02,5.77,3.69,9.1h-9.27Z"/>
    <path class="st5" d="M1544.51,1146.95c-1.67,0-3.1-.52-4.29-1.58-1.2-1.05-1.79-2.31-1.79-3.79s.6-2.74,1.79-3.79c1.2-1.05,2.63-1.57,4.29-1.57s3.1.52,4.29,1.57c1.2,1.05,1.79,2.31,1.79,3.79s-.6,2.74-1.79,3.79c-1.2,1.05-2.63,1.58-4.29,1.58ZM1549,1155.52v68.62h-8.98v-68.62h8.98Z"/>
    <path class="st5" d="M1593.51,1162.9v-7.37h55.64v7.37h-23.33v61.25h-8.98v-61.25h-23.33Z"/>
    <path class="st5" d="M1696.7,1224.15h-9.42l27.24-68.62h9.27l27.24,68.62h-9.42l-22.17-57.76h-.58l-22.17,57.76ZM1700.18,1197.34h37.96v7.37h-37.96v-7.37Z"/>
    <path class="st5" d="M1793.23,1224.15v-68.62h8.98v61.25h34.48v7.37h-43.47Z"/>
  </g>
  <g>
    <g>
      <path class="st4" d="M739.21,944.94c-48.71-218.8-261.74-211.37-261.74-211.37h-73.53l-23.92-.09h-209.06s25.6,29.72,36.33,68.53c10.73,38.81,14.04,156.88,51.19,246.05,37.16,89.17,107.34,135.41,132.93,151.1,25.6,15.69,76.79,68.53,76.79,68.53,0,0-.83-10.73-5.78-32.2-4.95-21.47-24.77-82.57-70.18-189.9-45.41-107.34-132.11-236.14-132.11-236.14,0,0,38.81,38.81,61.93,69.36,23.12,30.55,85.87,124.68,124.68,222.93,38.81,98.25,38.81,165.13,38.81,165.13.65.1,1.3.19,1.97.27,5.44.68,9.29.62,14.05.13,6.42-.65,11.67-1.6,16.84-2.53,141.54-25.99,260-143.77,220.81-319.8ZM524.43,1230.68c-3.33,1.71-7.57,3.53-12.66,4.89-3.68.99-7.06,1.54-9.99,1.84l-4.95.83,5.78-24.77c4.13-16.51,19.82-116.42-14.86-211.37-34.68-94.95-119.72-156.88-171.74-186.6-52.02-29.72-100.73-54.22-100.73-54.22h171.03l18.69.09,25.74.46s184.35.09,232.24,184.22c35.93,138.15-45.88,246.91-138.54,284.64Z"/>
      <path class="st1" d="M470.01,1271.72l-2.89-2.98c-.51-.53-51.35-52.89-76.49-68.3-61.75-37.85-107.92-90.34-133.53-151.8-25.32-60.78-34.91-134.46-41.9-188.25-3.32-25.5-5.94-45.64-9.35-57.97-10.52-38.02-35.77-67.66-36.02-67.95l-2.13-2.48h212.33l23.93.09h73.53c.48-.02,54.22-1.58,113.19,23.76,34.66,14.89,64.34,36.01,88.22,62.78,29.83,33.45,50.62,75.85,61.79,126.01,16.77,75.34,5.59,145.42-32.34,202.68-40.31,60.85-109.44,104.19-189.67,118.93-5.16.93-10.49,1.88-16.96,2.54-4.54.46-8.53.6-14.39-.13-.68-.09-1.35-.18-2.01-.28l-1.27-.19v-1.29c0-.67-.46-67.77-38.7-164.58-39.37-99.67-103.2-194.46-124.48-222.58-15.27-20.18-37.64-44.21-50.86-57.99,23.1,35.56,87.07,136.9,123.62,223.28,42.84,101.26,64.62,165.72,70.26,190.15,4.92,21.33,5.78,31.98,5.81,32.42l.32,4.14ZM487.02,1265.56c.23.03.45.06.68.09,5.58.7,9.38.57,13.71.13,6.36-.65,11.63-1.6,16.73-2.51,79.43-14.59,147.84-57.46,187.7-117.63,37.47-56.56,48.5-125.84,31.91-200.37-11.05-49.63-31.59-91.55-61.05-124.61-23.57-26.44-52.87-47.31-87.1-62.03-58.37-25.1-111.54-23.58-112.06-23.56h-73.58s-23.93-.09-23.93-.09h-205.9c6.29,7.97,25.69,34.32,34.62,66.63,3.47,12.54,6.1,32.77,9.43,58.39,6.98,53.63,16.53,127.08,41.7,187.49,25.37,60.88,71.12,112.88,132.33,150.4,22.15,13.58,62.5,53.93,74.01,65.63-.67-4.97-2.15-14.23-5.25-27.68-5.61-24.31-27.34-88.57-70.1-189.66-44.83-105.97-131.1-234.6-131.97-235.89l2.3-1.9c.39.39,39.15,39.23,62.06,69.51,21.34,28.21,85.39,123.3,124.87,223.29,20.09,50.88,29.6,93.18,34.04,119.72,4.06,24.27,4.74,40.17,4.85,44.67ZM494.85,1240.09l6.29-26.96c5.33-21.33,18.43-119.5-14.81-210.52-35.36-96.83-122.36-157.98-171.08-185.81-51.38-29.36-100.17-53.94-100.66-54.18l-5.65-2.84h177.35l18.69.09,25.76.46c.44,0,46.98.29,98.74,23.19,30.42,13.46,56.69,31.98,78.08,55.05,26.73,28.83,45.86,64.86,56.84,107.1,35.45,136.29-43.27,247.22-139.36,286.39-4.11,2.11-8.45,3.78-12.9,4.97-3.35.9-6.79,1.53-10.23,1.88l-7.08,1.18ZM221.53,762.78c14.28,7.3,53.91,27.82,95.22,51.42,49.07,28.04,136.71,89.67,172.4,187.39,33.5,91.73,20.28,190.75,14.91,212.25l-5.26,22.56,2.74-.46c3.38-.35,6.66-.96,9.85-1.81,4.26-1.14,8.42-2.75,12.36-4.77l.12-.06c94.91-38.65,172.67-148.23,137.65-282.88-10.85-41.73-29.73-77.31-56.09-105.77-21.09-22.76-47.01-41.05-77.04-54.35-51.2-22.68-97.2-22.98-97.66-22.98l-25.77-.46-18.67-.09h-164.77Z"/>
    </g>
    <g>
      <path class="st0" d="M200.13,894.42s-28.9,186.6,29.72,285.68c58.62,99.08,212.2,84.22,212.2,84.22-61-18.86-100.52-49.23-121.39-67.98-67.19-60.36-89.66-133.77-102.37-177.25-14.96-51.17-17.99-95.38-18.16-124.68Z"/>
      <path class="st2" d="M420.67,1266.59c-15.65,0-38.35-1.07-63.01-5.75-26.7-5.06-50.47-13.29-70.64-24.47-25.28-14-44.94-32.67-58.45-55.51-16.81-28.41-36.88-82.83-37.05-180.76-.1-58.48,7.07-105.45,7.14-105.92l2.98.22c.25,42.2,6.34,84.01,18.1,124.26,11.77,40.28,33.69,115.25,101.93,176.55,34.13,30.66,74.78,53.42,120.83,67.66l7.14,2.21-7.44.72c-.18.02-8.36.78-21.53.78ZM199.17,914.13c-2.08,19.08-4.72,50.4-4.66,86.02.18,97.22,20.02,151.11,36.64,179.19,13.23,22.36,32.5,40.66,57.29,54.39,19.88,11.02,43.33,19.14,69.71,24.15,32.94,6.25,62.34,6.03,75.88,5.44-43.36-14.47-81.8-36.6-114.36-65.86-68.87-61.87-90.95-137.38-102.8-177.94-10.01-34.25-15.94-69.62-17.69-105.39Z"/>
    </g>
    <path class="st3" d="M658.37,791.89c-45.04-36.4-96.46-48.52-110.68-51.9-34.34-8.16-66.87-8.72-66.87-8.72-8.62-.15-19.98.09-28.29.26-19.6.41-36.02.75-36.06,1.77-.07,1.7,45.76.56,86.88,8.58,21.38,4.17,91.89,18.92,148.7,78.67,79.47,83.59,71.53,191.53,70.46,203.36-4.29,47.65-21.39,84.07-33.27,104.69,0,0-35.76,62.08-107.83,103.12-23.19,13.2-47.15,22-47.15,22-6.79,2.55-14.13,5.03-22,7.33-9.57,2.79-18.64,4.94-27.07,6.6,7.95.56,18.91.8,31.81-.65,3.21-.36,16.85-1.98,38.14-8.6,23.03-7.17,40.44-15.66,49.34-20.29,19.78-10.28,53.86-28.41,85.62-65,23.41-26.98,35.53-52.44,40.01-62.54,20.28-45.71,21.02-85.62,21.24-102.89.21-16.49-.12-140.74-92.97-215.78Z"/>
  </g>
</svg>
